<svg width="82" height="92" viewBox="0 0 82 92" fill="none" xmlns="http://www.w3.org/2000/svg">
    <path d="M41.2904 92.0003C62.5174 92.0003 79.7254 89.6338 79.7254 86.7145C79.7254 83.7952 62.5174 81.4287 41.2904 81.4287C20.0634 81.4287 2.85545 83.7952 2.85545 86.7145C2.85545 89.6338 20.0634 92.0003 41.2904 92.0003Z" fill="#B2CEC0"/>
    <path d="M59.7695 44.0771C61.0466 46.1431 63.4677 47.1459 65.7375 48.0219C67.2105 48.6385 68.7331 49.1296 70.2891 49.4898C73.0068 50.0274 75.8395 49.7496 78.533 50.3718C79.3501 50.5651 80.3004 51.0182 80.3488 51.8578C80.3972 52.6975 79.6528 53.1264 79.0777 53.6037C76.7898 55.5066 75.9908 58.6418 75.5611 61.5837C75.5233 62.2442 75.3282 62.8862 74.9921 63.4564C74.6779 63.8647 74.2599 64.1817 73.7816 64.3746C71.9658 65.1539 69.8533 64.7491 68.1223 63.8249C66.3912 62.9006 64.9627 61.5112 63.4859 60.2003C62.009 58.8895 60.4111 57.6692 58.5287 57.1316C56.9424 56.7323 55.2849 56.7054 53.6865 57.053L59.7695 44.0771Z" fill="#4EC1C4"/>
    <path d="M63.5404 80.2809C61.9909 78.3478 61.8517 78.076 59.9693 76.6564C61.7185 70.108 62.7899 63.1851 62.2028 56.3408C61.6156 49.4964 59.2309 42.7185 54.9395 38.2181L27.926 37.6562C23.6467 42.1567 21.268 48.9346 20.6627 55.779C20.0575 62.6233 21.147 69.5462 22.8962 76.0885C21.0198 77.5323 20.8746 77.7981 19.3251 79.7131C18.3809 80.8911 17.4487 82.4315 17.7756 84.0263C18.0647 85.0985 18.7648 86.0141 19.7246 86.5756C23.2836 88.9919 26.3402 90.2001 29.7358 87.4636C30.0402 87.1653 30.4086 86.9401 30.8132 86.8051C31.0383 86.7539 31.2721 86.7539 31.4972 86.8051C37.7827 88.9261 44.5549 89.153 50.9689 87.4575C51.3071 87.3329 51.6709 87.2934 52.0281 87.3427C52.4327 87.4777 52.8011 87.7029 53.1055 88.0012C56.5011 90.7377 59.5577 89.5175 63.1167 87.1132C64.0753 86.5532 64.7752 85.6399 65.0657 84.57C65.3865 83.0054 64.4544 81.4589 63.5404 80.2809Z" fill="#EDD5C0"/>
    <path d="M38.1188 90.0246C39.0581 89.5799 39.8575 88.8872 40.4305 88.0215C41.0034 87.1558 41.328 86.15 41.3692 85.1133C41.3692 83.6695 40.7094 82.2983 40.2433 80.9149C38.7302 76.4144 39.0933 71.624 38.9481 66.9362C38.827 62.9311 38.2338 58.7447 35.9822 55.3135C35.622 54.8325 35.1486 54.4475 34.6039 54.1925C34.0591 53.9375 33.4598 53.8204 32.859 53.8516C32.2504 53.8381 31.6478 53.9749 31.105 54.25C30.5622 54.5251 30.096 54.9299 29.7479 55.4283C27.5568 59.0045 27.1512 63.2815 27.2239 67.3832C27.3086 72.071 27.8957 76.8373 26.6186 81.4042C26.2252 82.8117 25.6441 84.2132 25.7046 85.6328C25.7934 86.6664 26.1641 87.656 26.7766 88.4941C27.3891 89.3322 28.2199 89.9869 29.1789 90.387L29.3363 90.4535H29.4513C32.3324 90.9609 35.5282 91.2932 38.1188 90.0246Z" fill="#F4DFCC"/>
    <path d="M54.3401 89.9394C55.2803 89.4943 56.0803 88.8007 56.6533 87.9338C57.2263 87.0669 57.5504 86.0599 57.5904 85.0221C57.5904 83.5783 56.9367 82.2071 56.4707 80.8237C54.9514 76.3232 55.3146 71.5388 55.1693 66.8511C55.0664 62.8399 54.4612 58.6475 52.2217 55.2102C51.86 54.7328 51.3855 54.3521 50.8405 54.1023C50.2955 53.8525 49.697 53.7412 49.0984 53.7785C48.4926 53.7621 47.892 53.8946 47.3495 54.1643C46.807 54.4339 46.3392 54.8325 45.9873 55.325C43.7962 58.9073 43.3907 63.1782 43.4633 67.286C43.5481 71.9738 44.1352 76.74 42.858 81.307C42.4586 82.7085 41.8775 84.11 41.938 85.5356C42.0202 86.5693 42.3847 87.5607 42.9919 88.402C43.5991 89.2434 44.4258 89.9026 45.382 90.3079L45.5455 90.3683H45.6544C48.59 90.8939 51.7859 91.2322 54.3401 89.9394Z" fill="#F4DFCC"/>
    <path d="M35.2135 90.7742C34.5319 89.5149 34.3175 88.0559 34.6082 86.6543C34.6082 86.6543 33.1313 89.6264 33.3492 90.9736C33.9778 91.0429 34.6139 90.9749 35.2135 90.7742Z" fill="#EDD5C0"/>
    <path d="M29.6449 90.3446C29.6449 90.3446 29.1365 87.6261 29.6873 86.1582C29.6873 86.1582 28.2468 88.3752 28.1317 89.8854C28.5962 90.1476 29.1129 90.3043 29.6449 90.3446Z" fill="#EDD5C0"/>
    <path d="M46.2113 90.2422C47.0234 89.0637 47.3901 87.6359 47.2463 86.2129C47.2463 86.2129 48.4085 89.3179 48.0513 90.6288C47.4167 90.6391 46.7879 90.507 46.2113 90.2422Z" fill="#EDD5C0"/>
    <path d="M52.2217 90.442C52.2217 90.442 52.7301 87.7236 52.1733 86.2617C52.1733 86.2617 53.6199 88.4787 53.7288 89.989C53.2669 90.2509 52.7518 90.4058 52.2217 90.442Z" fill="#EDD5C0"/>
    <path d="M21.6977 44.6083C20.4509 44.7714 19.8819 46.0521 19.7729 47.1576C19.664 48.2631 21.4919 49.5196 20.8624 50.474C20.2528 51.4194 19.7147 52.4088 19.2524 53.4341C18.5745 54.7933 19.7124 56.4183 21.2438 57.0586C22.7751 57.699 22.7206 57.6144 24.4154 57.5479C27.9712 57.3336 31.5396 57.4712 35.0682 57.9587C36.1941 58.1339 37.3017 58.3755 38.4275 58.5628C43.101 59.2886 47.8784 58.952 52.4033 57.5781C55.6234 56.5935 58.91 55.0591 62.239 55.6873C62.5133 55.7603 62.7996 55.7768 63.0804 55.7357C63.6856 55.5846 63.8249 54.9201 63.8672 54.3825C64.0292 53.5856 63.9094 52.7573 63.5283 52.0386C63.3225 51.7305 63.0198 51.4768 62.8201 51.1627C62.348 50.4197 62.5175 49.5135 62.5477 48.6617C62.587 47.3867 62.2884 46.124 61.6822 45.001C61.553 44.721 61.3578 44.4764 61.1132 44.2881C60.4474 43.823 59.479 44.0586 58.6921 44.2881C47.732 47.529 36.0655 47.529 25.1054 44.2881L21.6977 44.6083Z" fill="#65C8D0"/>
    <path d="M20.7898 6.83562C16.6497 11.7529 11.3172 15.4922 6.26318 19.4309C4.9325 20.4001 3.7144 21.5145 2.63153 22.7534C1.40275 24.2724 0.569584 26.0712 0.206292 27.9895C-0.156999 29.9079 -0.0391328 31.8861 0.549388 33.7479C1.02885 35.3027 1.92957 36.6951 3.15207 37.7711C3.76376 38.3052 4.47781 38.7097 5.25089 38.9599C6.02396 39.2102 6.83993 39.3011 7.64926 39.227C8.71962 39.0551 9.74699 38.6798 10.6756 38.1215C11.6847 37.6141 12.6062 36.9493 13.4054 36.1522C14.2692 35.1599 14.9422 34.0172 15.3907 32.7813C16.6013 29.8153 17.2066 26.6498 18.4171 23.6777C19.6277 20.7056 21.4435 17.818 24.2822 16.344C24.2822 16.344 30.0202 6.21945 21.159 6.58795L20.7898 6.83562Z" fill="#736357"/>
    <path d="M60.2719 4.84755C64.6057 9.59571 70.0834 13.1115 75.3251 16.8448C76.6966 17.756 77.9614 18.8178 79.096 20.0102C80.3733 21.4795 81.2684 23.2401 81.7022 25.1366C82.1361 27.033 82.0954 29.0069 81.5836 30.8839C81.1716 32.4568 80.334 33.8863 79.1625 35.0159C78.5729 35.573 77.8764 36.0053 77.115 36.2866C76.3535 36.568 75.5429 36.6926 74.7319 36.653C73.6466 36.5209 72.5967 36.1826 71.639 35.6562C70.6123 35.2048 69.6643 34.593 68.8305 33.8439C67.9259 32.8894 67.2074 31.775 66.712 30.5577C65.3925 27.646 64.6238 24.5168 63.3346 21.5869C62.3913 19.2674 60.8954 17.2125 58.9766 15.6004C57.0138 14.123 55.6719 11.9697 55.2118 9.55946C54.7881 7.08873 55.466 4.61799 59.9027 4.62403L60.2719 4.84755Z" fill="#736357"/>
    <path d="M59.3035 26.9695C60.5612 23.9868 61.1579 20.7679 61.0527 17.5336C60.6774 5.69338 51.3683 -0.341494 40.1768 0.0149194C28.9852 0.371333 20.2572 6.99217 20.6324 18.8324C20.7222 21.7923 21.3968 24.7054 22.6177 27.4044C20.3614 30.0917 19.1572 33.5041 19.2282 37.0095C19.5248 46.4031 29.4089 52.8125 41.4176 52.4319C53.4262 52.0513 63.0138 45.0197 62.7112 35.6563C62.583 32.4613 61.3829 29.402 59.3035 26.9695Z" fill="#F4DFCC"/>
    <path d="M46.5927 5.81974C47.8032 9.5349 47.198 13.5642 46.52 17.4122L45.4124 24.0935C45.025 26.4072 44.6437 28.8477 45.4729 31.0466C46.0825 32.6262 47.2641 33.9197 48.7838 34.6711C49.9709 35.201 51.2444 35.5121 52.5425 35.5894C54.7518 35.7947 57.1184 35.6981 59.0008 34.5201C59.7254 34.0724 60.3264 33.4511 60.7493 32.7126C61.1721 31.9741 61.4033 31.1418 61.4219 30.2915C60.8622 29.0975 60.1501 27.9807 59.3035 26.969C60.5612 23.9863 61.1579 20.7674 61.0527 17.5331C60.8832 12.0962 58.8192 7.86761 55.5629 4.96193C54.079 3.69516 52.4221 2.6456 50.642 1.84482C48.2392 0.838179 45.6833 0.24385 43.0821 0.0869141H42.616C44.4027 1.63439 45.7703 3.60593 46.5927 5.81974Z" fill="#998675"/>
    <path d="M22.7267 34.4484C24.6091 35.6264 26.9636 35.7291 29.185 35.5177C30.4828 35.4424 31.7562 35.1334 32.9437 34.6055C34.4638 33.8545 35.6456 32.5608 36.2546 30.9809C37.0838 28.7881 36.7025 26.3415 36.3151 24.0278L35.1893 17.3828C34.5417 13.4865 33.8819 9.45716 35.0925 5.74804C35.9025 3.56863 37.2443 1.62523 38.9965 0.09375C31.0855 0.697841 24.5486 4.46737 21.8975 11.1124C21.4271 12.3752 21.0785 13.6799 20.8564 15.0088C20.6634 16.2737 20.5884 17.5539 20.6324 18.8327C20.7222 21.7926 21.3968 24.7057 22.6177 27.4047C21.708 28.5331 20.9548 29.7787 20.3782 31.1078C20.5283 31.7922 20.8132 32.4399 21.2164 33.0134C21.6196 33.5869 22.133 34.0747 22.7267 34.4484Z" fill="#998675"/>
    <path d="M52.2641 41.7282C52.2641 47.8899 47.2584 51.8286 40.9636 51.8286C34.6687 51.8286 29.4633 47.8899 29.4633 41.7282C29.4633 35.5665 34.5416 33.9717 40.8365 33.9717C47.1313 33.9717 52.2641 35.5665 52.2641 41.7282Z" fill="#FFE9D8"/>
    <path d="M48.5175 26.6733C48.5938 27.1679 48.8153 27.6288 49.154 27.9978C49.4927 28.3668 49.9335 28.6273 50.4205 28.7464C50.9075 28.8655 51.4189 28.8378 51.8902 28.6669C52.3615 28.496 52.7714 28.1895 53.0682 27.7861C53.365 27.3827 53.5353 26.9006 53.5576 26.4007C53.5799 25.9007 53.4532 25.4054 53.1936 24.9773C52.9339 24.5492 52.553 24.2075 52.0988 23.9954C51.6446 23.7833 51.1377 23.7103 50.642 23.7857C50.3124 23.8358 49.9959 23.9503 49.7107 24.1226C49.4255 24.2949 49.1772 24.5217 48.9798 24.7899C48.7825 25.0581 48.6401 25.3624 48.5608 25.6856C48.4814 26.0088 48.4667 26.3444 48.5175 26.6733Z" fill="#4D4D4D"/>
    <path d="M28.5191 26.7768C28.5955 27.2714 28.817 27.7323 29.1557 28.1013C29.4944 28.4703 29.9351 28.7308 30.4221 28.8499C30.9092 28.969 31.4206 28.9413 31.8919 28.7704C32.3631 28.5995 32.7731 28.293 33.0698 27.8896C33.3666 27.4862 33.5369 27.0041 33.5593 26.5042C33.5816 26.0042 33.4549 25.5089 33.1953 25.0808C32.9356 24.6527 32.5546 24.311 32.1005 24.0989C31.6463 23.8868 31.1393 23.8139 30.6436 23.8892C30.3141 23.9394 29.9976 24.0538 29.7124 24.2261C29.4272 24.3984 29.1788 24.6252 28.9815 24.8934C28.7842 25.1616 28.6418 25.466 28.5624 25.7891C28.4831 26.1123 28.4684 26.4479 28.5191 26.7768Z" fill="#4D4D4D"/>
    <path d="M35.4496 35.8439C35.4496 37.6562 37.9312 40.58 40.9636 40.5618C43.996 40.5437 46.4111 37.6018 46.4111 35.7895C46.4111 33.9772 43.9355 32.5153 40.9031 32.5274C37.8707 32.5395 35.4435 34.0256 35.4496 35.8439Z" fill="#4D4D4D"/>
    <path d="M45.5032 47.8713C44.4077 48.0405 43.1366 47.1343 42.3558 46.1497C41.7396 45.3264 41.325 44.3706 41.1452 43.3588V40.0967H40.54V43.3829C40.4131 44.379 40.0568 45.3322 39.4989 46.1678C38.7483 47.1948 37.5196 48.1251 36.418 47.9801C36.1517 47.9801 36.1699 48.4935 36.418 48.5298C37.6286 48.6808 38.9602 47.672 39.7834 46.5423C40.3179 45.764 40.6791 44.8803 40.8426 43.9508C41.0598 44.8879 41.4722 45.7688 42.0532 46.5363C42.9308 47.6357 44.2987 48.6023 45.5093 48.409C45.7756 48.3727 45.7695 47.829 45.5032 47.8713Z" fill="#4D4D4D"/>
</svg>
