<svg width="30" height="30" viewBox="0 0 30 30" fill="none" xmlns="http://www.w3.org/2000/svg">
    <path fill-rule="evenodd" clip-rule="evenodd" d="M21.0375 6.25H25C26.375 6.25 27.5 7.375 27.5 8.75V23.75C27.5 25.125 26.375 26.25 25 26.25H5C3.625 26.25 2.5 25.125 2.5 23.75V8.75C2.5 7.375 3.625 6.25 5 6.25H8.9625L11.25 3.75H18.75L21.0375 6.25ZM5 23.75H25V8.75H19.9375L17.65 6.25H12.35L10.0625 8.75H5V23.75ZM15 10C11.55 10 8.75 12.8 8.75 16.25C8.75 19.7 11.55 22.5 15 22.5C18.45 22.5 21.25 19.7 21.25 16.25C21.25 12.8 18.45 10 15 10ZM11.25 16.25C11.25 18.3125 12.9375 20 15 20C17.0625 20 18.75 18.3125 18.75 16.25C18.75 14.1875 17.0625 12.5 15 12.5C12.9375 12.5 11.25 14.1875 11.25 16.25Z" fill="#A9A9A9" fill-opacity="0.95"/>
</svg>
